<?xml version="1.0" encoding="UTF-8" standalone="no"?>
<svg
   width="30"
   height="30"
   viewBox="0 0 30 30"
   fill="none"
   version="1.1"
   id="svg11"
   sodipodi:docname="icon.svg"
   inkscape:version="1.4 (e7c3feb1, 2024-10-09)"
   xmlns:inkscape="http://www.inkscape.org/namespaces/inkscape"
   xmlns:sodipodi="http://sodipodi.sourceforge.net/DTD/sodipodi-0.dtd"
   xmlns="http://www.w3.org/2000/svg"
   xmlns:svg="http://www.w3.org/2000/svg">
  <defs
     id="defs11" />
  <sodipodi:namedview
     id="namedview11"
     pagecolor="#ffffff"
     bordercolor="#000000"
     borderopacity="0.25"
     inkscape:showpageshadow="2"
     inkscape:pageopacity="0.0"
     inkscape:pagecheckerboard="0"
     inkscape:deskcolor="#d1d1d1"
     inkscape:zoom="4.3387693"
     inkscape:cx="87.467199"
     inkscape:cy="11.063045"
     inkscape:window-width="1512"
     inkscape:window-height="879"
     inkscape:window-x="0"
     inkscape:window-y="38"
     inkscape:window-maximized="0"
     inkscape:current-layer="svg11"
     showguides="true" />
  <path
     d="m 2.9365027,22.637921 c 3.348,-4.8291 5.12,-12.9080606 5.761,-17.6256506 0.065,-0.47575 0.686,-0.60395 0.9030001,-0.17527 3.5860002,7.1101206 2.2470002,15.2886206 0.9250002,19.0728206 -0.092,0.2634 -0.386,0.3869 -0.6500002,0.2966 -2.1390001,-0.7315 -4.6740001,-0.7733 -6.4090001,-0.6407 -0.465,0.0356 -0.795,-0.5445 -0.53,-0.9278 z"
     fill="#297496"
     id="path9" />
  <path
     d="m 11.963503,23.562821 c 3.113,-8.7649 0.228,-17.0284506 -2.3920002,-21.1930006 -0.2690001,-0.42757 0.171,-1.001015 0.6370002,-0.806064 12.096,5.060314 15.849,15.5798646 16.294,21.0430646 0.029,0.3596 -0.334,0.6085 -0.676,0.4941 -4.742,-1.5852 -10.059,-0.1554 -13.088,1.1793 -0.436,0.1919 -0.934,-0.2688 -0.775,-0.7174 z"
     fill="#297496"
     id="path10" />
  <path
     d="m 28.027503,24.939321 -25.5820003,0.8614 c -0.392,0.0132 -0.617,0.4527 -0.398,0.7785 l 1.425,2.1216 c 0.093,0.1382 0.249,0.2211 0.415,0.2211 H 24.295503 c 0.063,0 0.126,-0.0122 0.185,-0.0356 2.674,-1.0766 3.7,-2.5382 3.979,-3.4569 0.082,-0.2706 -0.149,-0.4996 -0.432,-0.4901 z"
     fill="#297496"
     id="path11" />
</svg>
