<svg width="490" height="490" viewBox="0 0 490 490" fill="none" xmlns="http://www.w3.org/2000/svg">
<path d="M11.12 398.03C88.1342 308.9 124.246 128.011 132.887 46.9951C132.937 46.5229 133.555 46.4334 133.806 46.837C217.274 180.952 186.214 344.484 160.002 410.133C159.901 410.387 159.622 410.495 159.366 410.396C108.004 390.548 40.3987 394.308 11.5638 398.855C11.1 398.929 10.8133 398.385 11.12 398.03Z" fill="#297496"/>
<path d="M180.056 418.657C259.162 237.664 180.474 64.5521 128.159 1.34279C127.836 0.952302 128.288 0.428537 128.767 0.593897C381.581 87.842 450.668 297.283 453.683 392.048C453.694 392.406 453.333 392.632 452.999 392.503C350.779 352.863 229.823 393.433 180.711 419.338C180.291 419.56 179.865 419.093 180.056 418.657Z" fill="#297496"/>
<path d="M489.484 420.017L0.9206 435.879C0.524143 435.892 0.299822 436.339 0.526603 436.665L37.5431 489.786C37.6366 489.92 37.7898 490 37.9533 490H414.524C414.584 490 414.646 489.988 414.703 489.967C474.217 467.333 489.633 434.576 489.993 420.503C490.001 420.22 489.766 420.007 489.484 420.017Z" fill="#297496"/>
</svg>
