<svg width="220" height="220" viewBox="0 0 220 220" fill="none" xmlns="http://www.w3.org/2000/svg">
<circle cx="110" cy="110" r="110" fill="#F9F9F9"/>
<path d="M42.9597 142.397C65.2693 115.837 75.9204 63.5456 78.6662 39.0664C78.7191 38.5946 79.3377 38.4809 79.5848 38.887C103.772 78.6532 94.7779 126.739 87.016 146.448C86.9157 146.703 86.6347 146.813 86.3784 146.716C71.5974 141.123 52.4669 141.962 43.4307 143.241C42.9659 143.306 42.658 142.757 42.9597 142.397Z" fill="#297496"/>
<path d="M93.3006 148.372C115.912 95.4475 93.7047 44.9461 78.1555 25.3824C77.8401 24.9855 78.2695 24.4296 78.7475 24.5983C152.982 50.8002 173.648 112.382 174.778 140.831C174.792 141.189 174.431 141.421 174.096 141.294C144.219 129.982 109.155 141.328 93.9998 149.045C93.5761 149.261 93.1138 148.809 93.3006 148.372Z" fill="#297496"/>
<path d="M185.15 149.731L39.9206 154.446C39.5241 154.459 39.2998 154.906 39.5266 155.232L50.1328 170.452C50.2263 170.587 50.3795 170.666 50.5431 170.666H163.011C163.071 170.666 163.133 170.655 163.19 170.633C180.461 164.047 185.292 154.612 185.645 150.227C185.668 149.945 185.433 149.722 185.15 149.731Z" fill="#297496"/>
</svg>
