<svg width="175" height="51" viewBox="0 0 175 51" fill="none" xmlns="http://www.w3.org/2000/svg">
<g clip-path="url(#clip0_2_164)">
<path d="M20.418 30.396C18.438 30.396 16.7 29.956 15.204 29.076C13.708 28.174 12.542 26.887 11.706 25.215C10.87 23.543 10.452 21.53 10.452 19.176C10.452 16.822 10.87 14.831 11.706 13.203C12.542 11.553 13.708 10.299 15.204 9.441C16.7 8.583 18.438 8.154 20.418 8.154C22.398 8.154 24.136 8.583 25.632 9.441C27.128 10.299 28.294 11.553 29.13 13.203C29.966 14.831 30.384 16.822 30.384 19.176C30.384 21.53 29.966 23.543 29.13 25.215C28.294 26.887 27.128 28.174 25.632 29.076C24.136 29.956 22.398 30.396 20.418 30.396ZM20.418 25.512C21.716 25.512 22.728 24.94 23.454 23.796C24.202 22.652 24.576 21.112 24.576 19.176C24.576 17.218 24.202 15.711 23.454 14.655C22.728 13.577 21.716 13.038 20.418 13.038C19.142 13.038 18.13 13.577 17.382 14.655C16.634 15.711 16.26 17.218 16.26 19.176C16.26 21.112 16.634 22.652 17.382 23.796C18.13 24.94 19.142 25.512 20.418 25.512ZM32.9046 30V8.55H39.2406C41.4186 8.55 43.3326 8.913 44.9826 9.639C46.6546 10.343 47.9526 11.476 48.8766 13.038C49.8006 14.6 50.2626 16.646 50.2626 19.176C50.2626 21.706 49.8006 23.774 48.8766 25.38C47.9526 26.964 46.6876 28.13 45.0816 28.878C43.4756 29.626 41.6386 30 39.5706 30H32.9046ZM38.5806 25.446H38.9106C39.9446 25.446 40.8796 25.27 41.7156 24.918C42.5516 24.566 43.2116 23.939 43.6956 23.037C44.2016 22.135 44.4546 20.848 44.4546 19.176C44.4546 17.504 44.2016 16.239 43.6956 15.381C43.2116 14.501 42.5516 13.907 41.7156 13.599C40.8796 13.269 39.9446 13.104 38.9106 13.104H38.5806V25.446ZM55.875 30V22.608L49.407 8.55H55.479L57.063 13.038C57.327 13.852 57.591 14.644 57.855 15.414C58.119 16.184 58.394 16.987 58.68 17.823H58.812C59.098 16.987 59.373 16.184 59.637 15.414C59.923 14.644 60.209 13.852 60.495 13.038L62.079 8.55H68.019L61.551 22.608V30H55.875ZM74.8966 30.396C73.5546 30.396 72.1576 30.143 70.7056 29.637C69.2536 29.131 67.9446 28.361 66.7786 27.327L70.0126 23.433C70.7826 24.049 71.6076 24.555 72.4876 24.951C73.3896 25.325 74.2366 25.512 75.0286 25.512C75.8866 25.512 76.5026 25.38 76.8766 25.116C77.2726 24.852 77.4706 24.478 77.4706 23.994C77.4706 23.488 77.2066 23.103 76.6786 22.839C76.1726 22.575 75.4686 22.267 74.5666 21.915L71.8936 20.793C70.7496 20.331 69.7376 19.605 68.8576 18.615C67.9996 17.625 67.5706 16.36 67.5706 14.82C67.5706 13.588 67.9116 12.477 68.5936 11.487C69.2756 10.475 70.2106 9.672 71.3986 9.078C72.6086 8.462 73.9946 8.154 75.5566 8.154C76.7886 8.154 78.0316 8.396 79.2856 8.88C80.5616 9.342 81.6946 10.057 82.6846 11.025L79.8466 14.589C79.1206 14.083 78.4166 13.698 77.7346 13.434C77.0746 13.17 76.3486 13.038 75.5566 13.038C74.8746 13.038 74.3246 13.159 73.9066 13.401C73.5106 13.643 73.3126 14.006 73.3126 14.49C73.3126 14.996 73.5986 15.392 74.1706 15.678C74.7426 15.942 75.5126 16.261 76.4806 16.635L79.0876 17.658C80.4296 18.186 81.4636 18.923 82.1896 19.869C82.9156 20.815 83.2786 22.036 83.2786 23.532C83.2786 24.742 82.9486 25.875 82.2886 26.931C81.6506 27.965 80.7046 28.801 79.4506 29.439C78.1966 30.077 76.6786 30.396 74.8966 30.396ZM91.559 30.396C90.217 30.396 88.82 30.143 87.368 29.637C85.916 29.131 84.607 28.361 83.441 27.327L86.675 23.433C87.445 24.049 88.27 24.555 89.15 24.951C90.052 25.325 90.899 25.512 91.691 25.512C92.549 25.512 93.165 25.38 93.539 25.116C93.935 24.852 94.133 24.478 94.133 23.994C94.133 23.488 93.869 23.103 93.341 22.839C92.835 22.575 92.131 22.267 91.229 21.915L88.556 20.793C87.412 20.331 86.4 19.605 85.52 18.615C84.662 17.625 84.233 16.36 84.233 14.82C84.233 13.588 84.574 12.477 85.256 11.487C85.938 10.475 86.873 9.672 88.061 9.078C89.271 8.462 90.657 8.154 92.219 8.154C93.451 8.154 94.694 8.396 95.948 8.88C97.224 9.342 98.357 10.057 99.347 11.025L96.509 14.589C95.783 14.083 95.079 13.698 94.397 13.434C93.737 13.17 93.011 13.038 92.219 13.038C91.537 13.038 90.987 13.159 90.569 13.401C90.173 13.643 89.975 14.006 89.975 14.49C89.975 14.996 90.261 15.392 90.833 15.678C91.405 15.942 92.175 16.261 93.143 16.635L95.75 17.658C97.092 18.186 98.126 18.923 98.852 19.869C99.578 20.815 99.941 22.036 99.941 23.532C99.941 24.742 99.611 25.875 98.951 26.931C98.313 27.965 97.367 28.801 96.113 29.439C94.859 30.077 93.341 30.396 91.559 30.396ZM102.068 30V8.55H115.928V13.302H107.744V16.668H114.74V21.42H107.744V25.248H116.258V30H102.068ZM122.847 30V22.608L116.379 8.55H122.451L124.035 13.038C124.299 13.852 124.563 14.644 124.827 15.414C125.091 16.184 125.366 16.987 125.652 17.823H125.784C126.07 16.987 126.345 16.184 126.609 15.414C126.895 14.644 127.181 13.852 127.467 13.038L129.051 8.55H134.991L128.523 22.608V30H122.847Z" fill="#0C3354"/>
<path d="M15.17 40.52L14.94 41.32H16.61L16.38 40.52C16.2733 40.1733 16.17 39.8167 16.07 39.45C15.9767 39.0833 15.8833 38.72 15.79 38.36H15.75C15.6633 38.7267 15.57 39.0933 15.47 39.46C15.3767 39.82 15.2767 40.1733 15.17 40.52ZM12.98 44L15.11 37.46H16.47L18.6 44H17.38L16.87 42.23H14.67L14.16 44H12.98ZM21.4081 44V37.46H22.5681V40.43H22.5981L24.9281 37.46H26.2181L24.2081 40.01L26.5581 44H25.2781L23.5081 40.92L22.5681 42.09V44H21.4081ZM27.2749 44V36.94H28.4249V38.76L28.3849 39.71C28.5916 39.5167 28.8216 39.3467 29.0749 39.2C29.3283 39.0467 29.6216 38.97 29.9549 38.97C30.4816 38.97 30.8649 39.14 31.1049 39.48C31.3449 39.82 31.4649 40.3 31.4649 40.92V44H30.3149V41.07C30.3149 40.6633 30.2549 40.3767 30.1349 40.21C30.0149 40.0433 29.8183 39.96 29.5449 39.96C29.3316 39.96 29.1416 40.0133 28.9749 40.12C28.8149 40.22 28.6316 40.37 28.4249 40.57V44H27.2749ZM34.8611 44.12C34.4544 44.12 34.0744 44.02 33.7211 43.82C33.3678 43.6133 33.0811 43.32 32.8611 42.94C32.6411 42.5533 32.5311 42.09 32.5311 41.55C32.5311 41.0033 32.6411 40.54 32.8611 40.16C33.0811 39.7733 33.3678 39.48 33.7211 39.28C34.0744 39.0733 34.4544 38.97 34.8611 38.97C35.2744 38.97 35.6578 39.0733 36.0111 39.28C36.3644 39.48 36.6511 39.7733 36.8711 40.16C37.0911 40.54 37.2011 41.0033 37.2011 41.55C37.2011 42.09 37.0911 42.5533 36.8711 42.94C36.6511 43.32 36.3644 43.6133 36.0111 43.82C35.6578 44.02 35.2744 44.12 34.8611 44.12ZM34.8611 43.18C35.2211 43.18 35.5044 43.03 35.7111 42.73C35.9178 42.43 36.0211 42.0367 36.0211 41.55C36.0211 41.0567 35.9178 40.66 35.7111 40.36C35.5044 40.06 35.2211 39.91 34.8611 39.91C34.5011 39.91 34.2178 40.06 34.0111 40.36C33.8111 40.66 33.7111 41.0567 33.7111 41.55C33.7111 42.0367 33.8111 42.43 34.0111 42.73C34.2178 43.03 34.5011 43.18 34.8611 43.18ZM39.7994 44.12C39.2727 44.12 38.8894 43.95 38.6494 43.61C38.4094 43.27 38.2894 42.79 38.2894 42.17V39.09H39.4394V42.02C39.4394 42.4267 39.4994 42.7133 39.6194 42.88C39.7394 43.0467 39.9327 43.13 40.1994 43.13C40.4127 43.13 40.5994 43.0767 40.7594 42.97C40.926 42.8633 41.1027 42.69 41.2894 42.45V39.09H42.4394V44H41.4994L41.4094 43.28H41.3794C41.166 43.5333 40.9327 43.7367 40.6794 43.89C40.426 44.0433 40.1327 44.12 39.7994 44.12ZM43.896 44V39.09H44.846L44.926 39.96H44.966C45.1393 39.64 45.3493 39.3967 45.596 39.23C45.8427 39.0567 46.096 38.97 46.356 38.97C46.5893 38.97 46.776 39.0033 46.916 39.07L46.716 40.07C46.6293 40.0433 46.5493 40.0233 46.476 40.01C46.4027 39.9967 46.3127 39.99 46.206 39.99C46.0127 39.99 45.8093 40.0667 45.596 40.22C45.3827 40.3667 45.1993 40.6267 45.046 41V44H43.896ZM48.1127 46.02C47.9794 46.02 47.8627 46.01 47.7627 45.99C47.6627 45.97 47.5661 45.9467 47.4727 45.92L47.6827 45.02C47.7294 45.0333 47.7827 45.0467 47.8427 45.06C47.9094 45.08 47.9727 45.09 48.0327 45.09C48.2927 45.09 48.4994 45.01 48.6527 44.85C48.8127 44.6967 48.9327 44.4967 49.0127 44.25L49.1027 43.94L47.1727 39.09H48.3427L49.1927 41.5C49.2661 41.7133 49.3361 41.94 49.4027 42.18C49.4761 42.4133 49.5494 42.6467 49.6227 42.88H49.6627C49.7227 42.6533 49.7827 42.4233 49.8427 42.19C49.9094 41.95 49.9727 41.72 50.0327 41.5L50.7727 39.09H51.8827L50.1027 44.22C49.8961 44.7733 49.6461 45.21 49.3527 45.53C49.0594 45.8567 48.6461 46.02 48.1127 46.02ZM57.4459 44.12C56.8992 44.12 56.4025 43.99 55.9559 43.73C55.5092 43.47 55.1525 43.09 54.8859 42.59C54.6259 42.0833 54.4959 41.47 54.4959 40.75C54.4959 40.0367 54.6292 39.4267 54.8959 38.92C55.1692 38.4067 55.5325 38.0167 55.9859 37.75C56.4392 37.4767 56.9392 37.34 57.4859 37.34C57.8992 37.34 58.2659 37.4233 58.5859 37.59C58.9059 37.7567 59.1692 37.95 59.3759 38.17L58.7559 38.92C58.5892 38.7467 58.4025 38.61 58.1959 38.51C57.9959 38.4033 57.7692 38.35 57.5159 38.35C57.1625 38.35 56.8459 38.4467 56.5659 38.64C56.2925 38.8267 56.0759 39.0967 55.9159 39.45C55.7625 39.8033 55.6859 40.2267 55.6859 40.72C55.6859 41.4667 55.8492 42.0533 56.1759 42.48C56.5025 42.9 56.9392 43.11 57.4859 43.11C57.7792 43.11 58.0392 43.05 58.2659 42.93C58.4925 42.8033 58.6992 42.64 58.8859 42.44L59.5059 43.17C59.2392 43.4767 58.9325 43.7133 58.5859 43.88C58.2459 44.04 57.8659 44.12 57.4459 44.12ZM62.5076 44.12C62.1009 44.12 61.7209 44.02 61.3676 43.82C61.0142 43.6133 60.7276 43.32 60.5076 42.94C60.2876 42.5533 60.1776 42.09 60.1776 41.55C60.1776 41.0033 60.2876 40.54 60.5076 40.16C60.7276 39.7733 61.0142 39.48 61.3676 39.28C61.7209 39.0733 62.1009 38.97 62.5076 38.97C62.9209 38.97 63.3042 39.0733 63.6576 39.28C64.0109 39.48 64.2976 39.7733 64.5176 40.16C64.7376 40.54 64.8476 41.0033 64.8476 41.55C64.8476 42.09 64.7376 42.5533 64.5176 42.94C64.2976 43.32 64.0109 43.6133 63.6576 43.82C63.3042 44.02 62.9209 44.12 62.5076 44.12ZM62.5076 43.18C62.8676 43.18 63.1509 43.03 63.3576 42.73C63.5642 42.43 63.6676 42.0367 63.6676 41.55C63.6676 41.0567 63.5642 40.66 63.3576 40.36C63.1509 40.06 62.8676 39.91 62.5076 39.91C62.1476 39.91 61.8642 40.06 61.6576 40.36C61.4576 40.66 61.3576 41.0567 61.3576 41.55C61.3576 42.0367 61.4576 42.43 61.6576 42.73C61.8642 43.03 62.1476 43.18 62.5076 43.18ZM67.1059 44.12C66.6992 44.12 66.4092 43.9967 66.2359 43.75C66.0692 43.5033 65.9859 43.1667 65.9859 42.74V36.94H67.1359V42.8C67.1359 42.94 67.1625 43.04 67.2159 43.1C67.2692 43.1533 67.3259 43.18 67.3859 43.18C67.4125 43.18 67.4359 43.18 67.4559 43.18C67.4825 43.1733 67.5192 43.1667 67.5659 43.16L67.7159 44.02C67.6492 44.0467 67.5625 44.07 67.4559 44.09C67.3559 44.11 67.2392 44.12 67.1059 44.12ZM69.8207 44.12C69.414 44.12 69.124 43.9967 68.9507 43.75C68.784 43.5033 68.7007 43.1667 68.7007 42.74V36.94H69.8507V42.8C69.8507 42.94 69.8774 43.04 69.9307 43.1C69.984 43.1533 70.0407 43.18 70.1007 43.18C70.1274 43.18 70.1507 43.18 70.1707 43.18C70.1974 43.1733 70.234 43.1667 70.2807 43.16L70.4307 44.02C70.364 44.0467 70.2774 44.07 70.1707 44.09C70.0707 44.11 69.954 44.12 69.8207 44.12ZM73.5155 44.12C73.0622 44.12 72.6522 44.02 72.2855 43.82C71.9189 43.6133 71.6289 43.32 71.4155 42.94C71.2022 42.5533 71.0955 42.09 71.0955 41.55C71.0955 41.0167 71.2022 40.5567 71.4155 40.17C71.6355 39.7833 71.9189 39.4867 72.2655 39.28C72.6122 39.0733 72.9755 38.97 73.3555 38.97C73.8022 38.97 74.1755 39.07 74.4755 39.27C74.7755 39.4633 75.0022 39.7367 75.1555 40.09C75.3089 40.4367 75.3855 40.84 75.3855 41.3C75.3855 41.54 75.3689 41.7267 75.3355 41.86H72.2155C72.2689 42.2933 72.4255 42.63 72.6855 42.87C72.9455 43.11 73.2722 43.23 73.6655 43.23C73.8789 43.23 74.0755 43.2 74.2555 43.14C74.4422 43.0733 74.6255 42.9833 74.8055 42.87L75.1955 43.59C74.9622 43.7433 74.7022 43.87 74.4155 43.97C74.1289 44.07 73.8289 44.12 73.5155 44.12ZM72.2055 41.08H74.3855C74.3855 40.7 74.3022 40.4033 74.1355 40.19C73.9689 39.97 73.7189 39.86 73.3855 39.86C73.0989 39.86 72.8422 39.9667 72.6155 40.18C72.3955 40.3867 72.2589 40.6867 72.2055 41.08ZM78.0963 46.17C77.7096 46.17 77.3596 46.1233 77.0463 46.03C76.7396 45.9367 76.4963 45.7933 76.3162 45.6C76.1429 45.4133 76.0563 45.1767 76.0563 44.89C76.0563 44.4833 76.2896 44.1333 76.7563 43.84V43.8C76.6296 43.72 76.5229 43.6133 76.4363 43.48C76.3563 43.3467 76.3162 43.18 76.3162 42.98C76.3162 42.7867 76.3696 42.6133 76.4763 42.46C76.5896 42.3 76.7163 42.17 76.8563 42.07V42.03C76.6896 41.9033 76.5396 41.7267 76.4063 41.5C76.2796 41.2733 76.2163 41.0167 76.2163 40.73C76.2163 40.35 76.3063 40.03 76.4863 39.77C76.6663 39.51 76.9029 39.3133 77.1963 39.18C77.4963 39.04 77.8163 38.97 78.1562 38.97C78.2896 38.97 78.4163 38.9833 78.5363 39.01C78.6629 39.03 78.7763 39.0567 78.8763 39.09H80.6363V39.94H79.7363C79.8163 40.0333 79.8829 40.1533 79.9363 40.3C79.9896 40.44 80.0163 40.5967 80.0163 40.77C80.0163 41.13 79.9329 41.4367 79.7663 41.69C79.5996 41.9367 79.3763 42.1233 79.0963 42.25C78.8163 42.3767 78.5029 42.44 78.1562 42.44C78.0496 42.44 77.9396 42.43 77.8263 42.41C77.7129 42.39 77.5996 42.3567 77.4863 42.31C77.4129 42.3767 77.3529 42.4433 77.3063 42.51C77.2663 42.5767 77.2463 42.6667 77.2463 42.78C77.2463 42.92 77.3029 43.03 77.4163 43.11C77.5363 43.19 77.7463 43.23 78.0463 43.23H78.9163C79.5096 43.23 79.9563 43.3267 80.2563 43.52C80.5629 43.7067 80.7163 44.0133 80.7163 44.44C80.7163 44.76 80.6096 45.05 80.3963 45.31C80.1829 45.5767 79.8796 45.7867 79.4863 45.94C79.0929 46.0933 78.6296 46.17 78.0963 46.17ZM78.1562 41.72C78.3896 41.72 78.5896 41.6333 78.7563 41.46C78.9229 41.2867 79.0063 41.0433 79.0063 40.73C79.0063 40.4233 78.9229 40.1867 78.7563 40.02C78.5963 39.8467 78.3963 39.76 78.1562 39.76C77.9163 39.76 77.7129 39.8433 77.5463 40.01C77.3796 40.1767 77.2963 40.4167 77.2963 40.73C77.2963 41.0433 77.3796 41.2867 77.5463 41.46C77.7129 41.6333 77.9163 41.72 78.1562 41.72ZM78.2763 45.42C78.6696 45.42 78.9896 45.34 79.2363 45.18C79.4829 45.02 79.6063 44.8367 79.6063 44.63C79.6063 44.4367 79.5296 44.3067 79.3763 44.24C79.2296 44.1733 79.0163 44.14 78.7363 44.14H78.0663C77.7996 44.14 77.5763 44.1167 77.3963 44.07C77.1429 44.2633 77.0163 44.48 77.0163 44.72C77.0163 44.94 77.1296 45.11 77.3563 45.23C77.5829 45.3567 77.8896 45.42 78.2763 45.42ZM83.5253 44.12C83.072 44.12 82.662 44.02 82.2953 43.82C81.9286 43.6133 81.6386 43.32 81.4253 42.94C81.212 42.5533 81.1053 42.09 81.1053 41.55C81.1053 41.0167 81.212 40.5567 81.4253 40.17C81.6453 39.7833 81.9286 39.4867 82.2753 39.28C82.622 39.0733 82.9853 38.97 83.3653 38.97C83.812 38.97 84.1853 39.07 84.4853 39.27C84.7853 39.4633 85.012 39.7367 85.1653 40.09C85.3186 40.4367 85.3953 40.84 85.3953 41.3C85.3953 41.54 85.3786 41.7267 85.3453 41.86H82.2253C82.2786 42.2933 82.4353 42.63 82.6953 42.87C82.9553 43.11 83.282 43.23 83.6753 43.23C83.8886 43.23 84.0853 43.2 84.2653 43.14C84.452 43.0733 84.6353 42.9833 84.8153 42.87L85.2053 43.59C84.972 43.7433 84.712 43.87 84.4253 43.97C84.1386 44.07 83.8386 44.12 83.5253 44.12ZM82.2153 41.08H84.3953C84.3953 40.7 84.312 40.4033 84.1453 40.19C83.9786 39.97 83.7286 39.86 83.3953 39.86C83.1086 39.86 82.852 39.9667 82.6253 40.18C82.4053 40.3867 82.2686 40.6867 82.2153 41.08ZM88.5956 44V37.46H89.7556V43.02H92.4756V44H88.5956ZM95.4882 44.12C95.0349 44.12 94.6249 44.02 94.2582 43.82C93.8915 43.6133 93.6015 43.32 93.3882 42.94C93.1749 42.5533 93.0682 42.09 93.0682 41.55C93.0682 41.0167 93.1749 40.5567 93.3882 40.17C93.6082 39.7833 93.8915 39.4867 94.2382 39.28C94.5849 39.0733 94.9482 38.97 95.3282 38.97C95.7749 38.97 96.1482 39.07 96.4482 39.27C96.7482 39.4633 96.9749 39.7367 97.1282 40.09C97.2815 40.4367 97.3582 40.84 97.3582 41.3C97.3582 41.54 97.3415 41.7267 97.3082 41.86H94.1882C94.2415 42.2933 94.3982 42.63 94.6582 42.87C94.9182 43.11 95.2449 43.23 95.6382 43.23C95.8515 43.23 96.0482 43.2 96.2282 43.14C96.4149 43.0733 96.5982 42.9833 96.7782 42.87L97.1682 43.59C96.9349 43.7433 96.6749 43.87 96.3882 43.97C96.1015 44.07 95.8015 44.12 95.4882 44.12ZM94.1782 41.08H96.3582C96.3582 40.7 96.2749 40.4033 96.1082 40.19C95.9415 39.97 95.6915 39.86 95.3582 39.86C95.0715 39.86 94.8149 39.9667 94.5882 40.18C94.3682 40.3867 94.2315 40.6867 94.1782 41.08ZM99.5294 44.12C99.1027 44.12 98.7527 43.9867 98.4794 43.72C98.2127 43.4533 98.0794 43.1067 98.0794 42.68C98.0794 42.1533 98.3094 41.7467 98.7694 41.46C99.2294 41.1667 99.9627 40.9667 100.969 40.86C100.963 40.6 100.893 40.3767 100.759 40.19C100.633 39.9967 100.403 39.9 100.069 39.9C99.8294 39.9 99.5927 39.9467 99.3594 40.04C99.1327 40.1333 98.9094 40.2467 98.6894 40.38L98.2694 39.61C98.5427 39.4367 98.8494 39.2867 99.1894 39.16C99.536 39.0333 99.9027 38.97 100.289 38.97C100.903 38.97 101.359 39.1533 101.659 39.52C101.966 39.88 102.119 40.4033 102.119 41.09V44H101.169L101.089 43.46H101.049C100.829 43.6467 100.593 43.8033 100.339 43.93C100.093 44.0567 99.8227 44.12 99.5294 44.12ZM99.8994 43.22C100.099 43.22 100.279 43.1733 100.439 43.08C100.606 42.98 100.783 42.8467 100.969 42.68V41.58C100.303 41.6667 99.8394 41.7967 99.5794 41.97C99.3194 42.1367 99.1894 42.3433 99.1894 42.59C99.1894 42.81 99.256 42.97 99.3894 43.07C99.5227 43.17 99.6927 43.22 99.8994 43.22ZM103.496 44V39.09H104.446L104.526 39.96H104.566C104.739 39.64 104.949 39.3967 105.196 39.23C105.442 39.0567 105.696 38.97 105.956 38.97C106.189 38.97 106.376 39.0033 106.516 39.07L106.316 40.07C106.229 40.0433 106.149 40.0233 106.076 40.01C106.002 39.9967 105.912 39.99 105.806 39.99C105.612 39.99 105.409 40.0667 105.196 40.22C104.982 40.3667 104.799 40.6267 104.646 41V44H103.496ZM107.226 44V39.09H108.176L108.256 39.75H108.296C108.516 39.5367 108.756 39.3533 109.016 39.2C109.276 39.0467 109.573 38.97 109.906 38.97C110.433 38.97 110.816 39.14 111.056 39.48C111.296 39.82 111.416 40.3 111.416 40.92V44H110.266V41.07C110.266 40.6633 110.206 40.3767 110.086 40.21C109.966 40.0433 109.769 39.96 109.496 39.96C109.283 39.96 109.093 40.0133 108.926 40.12C108.766 40.22 108.583 40.37 108.376 40.57V44H107.226ZM112.822 44V39.09H113.972V44H112.822ZM113.402 38.23C113.195 38.23 113.028 38.17 112.902 38.05C112.775 37.93 112.712 37.77 112.712 37.57C112.712 37.3767 112.775 37.22 112.902 37.1C113.028 36.98 113.195 36.92 113.402 36.92C113.608 36.92 113.775 36.98 113.902 37.1C114.028 37.22 114.092 37.3767 114.092 37.57C114.092 37.77 114.028 37.93 113.902 38.05C113.775 38.17 113.608 38.23 113.402 38.23ZM115.439 44V39.09H116.389L116.469 39.75H116.509C116.729 39.5367 116.969 39.3533 117.229 39.2C117.489 39.0467 117.786 38.97 118.119 38.97C118.646 38.97 119.029 39.14 119.269 39.48C119.509 39.82 119.629 40.3 119.629 40.92V44H118.479V41.07C118.479 40.6633 118.419 40.3767 118.299 40.21C118.179 40.0433 117.982 39.96 117.709 39.96C117.496 39.96 117.306 40.0133 117.139 40.12C116.979 40.22 116.796 40.37 116.589 40.57V44H115.439ZM122.745 46.17C122.358 46.17 122.008 46.1233 121.695 46.03C121.388 45.9367 121.145 45.7933 120.965 45.6C120.791 45.4133 120.705 45.1767 120.705 44.89C120.705 44.4833 120.938 44.1333 121.405 43.84V43.8C121.278 43.72 121.171 43.6133 121.085 43.48C121.005 43.3467 120.965 43.18 120.965 42.98C120.965 42.7867 121.018 42.6133 121.125 42.46C121.238 42.3 121.365 42.17 121.505 42.07V42.03C121.338 41.9033 121.188 41.7267 121.055 41.5C120.928 41.2733 120.865 41.0167 120.865 40.73C120.865 40.35 120.955 40.03 121.135 39.77C121.315 39.51 121.551 39.3133 121.845 39.18C122.145 39.04 122.465 38.97 122.805 38.97C122.938 38.97 123.065 38.9833 123.185 39.01C123.311 39.03 123.425 39.0567 123.525 39.09H125.285V39.94H124.385C124.465 40.0333 124.531 40.1533 124.585 40.3C124.638 40.44 124.665 40.5967 124.665 40.77C124.665 41.13 124.581 41.4367 124.415 41.69C124.248 41.9367 124.025 42.1233 123.745 42.25C123.465 42.3767 123.151 42.44 122.805 42.44C122.698 42.44 122.588 42.43 122.475 42.41C122.361 42.39 122.248 42.3567 122.135 42.31C122.061 42.3767 122.001 42.4433 121.955 42.51C121.915 42.5767 121.895 42.6667 121.895 42.78C121.895 42.92 121.951 43.03 122.065 43.11C122.185 43.19 122.395 43.23 122.695 43.23H123.565C124.158 43.23 124.605 43.3267 124.905 43.52C125.211 43.7067 125.365 44.0133 125.365 44.44C125.365 44.76 125.258 45.05 125.045 45.31C124.831 45.5767 124.528 45.7867 124.135 45.94C123.741 46.0933 123.278 46.17 122.745 46.17ZM122.805 41.72C123.038 41.72 123.238 41.6333 123.405 41.46C123.571 41.2867 123.655 41.0433 123.655 40.73C123.655 40.4233 123.571 40.1867 123.405 40.02C123.245 39.8467 123.045 39.76 122.805 39.76C122.565 39.76 122.361 39.8433 122.195 40.01C122.028 40.1767 121.945 40.4167 121.945 40.73C121.945 41.0433 122.028 41.2867 122.195 41.46C122.361 41.6333 122.565 41.72 122.805 41.72ZM122.925 45.42C123.318 45.42 123.638 45.34 123.885 45.18C124.131 45.02 124.255 44.8367 124.255 44.63C124.255 44.4367 124.178 44.3067 124.025 44.24C123.878 44.1733 123.665 44.14 123.385 44.14H122.715C122.448 44.14 122.225 44.1167 122.045 44.07C121.791 44.2633 121.665 44.48 121.665 44.72C121.665 44.94 121.778 45.11 122.005 45.23C122.231 45.3567 122.538 45.42 122.925 45.42ZM128.332 44V37.46H130.392C130.879 37.46 131.312 37.5233 131.692 37.65C132.072 37.7767 132.372 37.9867 132.592 38.28C132.812 38.5733 132.922 38.9733 132.922 39.48C132.922 39.96 132.812 40.3567 132.592 40.67C132.372 40.9833 132.075 41.2167 131.702 41.37C131.329 41.5233 130.905 41.6 130.432 41.6H129.492V44H128.332ZM129.492 40.67H130.342C131.302 40.67 131.782 40.2733 131.782 39.48C131.782 39.0667 131.655 38.7833 131.402 38.63C131.155 38.47 130.789 38.39 130.302 38.39H129.492V40.67ZM135.172 44.12C134.766 44.12 134.476 43.9967 134.302 43.75C134.136 43.5033 134.052 43.1667 134.052 42.74V36.94H135.202V42.8C135.202 42.94 135.229 43.04 135.282 43.1C135.336 43.1533 135.392 43.18 135.452 43.18C135.479 43.18 135.502 43.18 135.522 43.18C135.549 43.1733 135.586 43.1667 135.632 43.16L135.782 44.02C135.716 44.0467 135.629 44.07 135.522 44.09C135.422 44.11 135.306 44.12 135.172 44.12ZM137.957 44.12C137.53 44.12 137.18 43.9867 136.907 43.72C136.64 43.4533 136.507 43.1067 136.507 42.68C136.507 42.1533 136.737 41.7467 137.197 41.46C137.657 41.1667 138.39 40.9667 139.397 40.86C139.39 40.6 139.32 40.3767 139.187 40.19C139.06 39.9967 138.83 39.9 138.497 39.9C138.257 39.9 138.02 39.9467 137.787 40.04C137.56 40.1333 137.337 40.2467 137.117 40.38L136.697 39.61C136.97 39.4367 137.277 39.2867 137.617 39.16C137.964 39.0333 138.33 38.97 138.717 38.97C139.33 38.97 139.787 39.1533 140.087 39.52C140.394 39.88 140.547 40.4033 140.547 41.09V44H139.597L139.517 43.46H139.477C139.257 43.6467 139.02 43.8033 138.767 43.93C138.52 44.0567 138.25 44.12 137.957 44.12ZM138.327 43.22C138.527 43.22 138.707 43.1733 138.867 43.08C139.034 42.98 139.21 42.8467 139.397 42.68V41.58C138.73 41.6667 138.267 41.7967 138.007 41.97C137.747 42.1367 137.617 42.3433 137.617 42.59C137.617 42.81 137.684 42.97 137.817 43.07C137.95 43.17 138.12 43.22 138.327 43.22ZM143.497 44.12C142.93 44.12 142.527 43.9567 142.287 43.63C142.054 43.2967 141.937 42.8667 141.937 42.34V40H141.237V39.14L141.997 39.09L142.137 37.75H143.097V39.09H144.347V40H143.097V42.34C143.097 42.9133 143.327 43.2 143.787 43.2C143.874 43.2 143.964 43.19 144.057 43.17C144.15 43.1433 144.23 43.1167 144.297 43.09L144.497 43.94C144.364 43.9867 144.21 44.0267 144.037 44.06C143.87 44.1 143.69 44.12 143.497 44.12ZM145.58 44V40H144.92V39.14L145.58 39.09V38.58C145.58 38.0667 145.707 37.6467 145.96 37.32C146.214 36.9867 146.63 36.82 147.21 36.82C147.384 36.82 147.55 36.8367 147.71 36.87C147.87 36.9033 148.004 36.9433 148.11 36.99L147.89 37.85C147.71 37.77 147.53 37.73 147.35 37.73C146.937 37.73 146.73 38.0067 146.73 38.56V39.09H147.69V40H146.73V44H145.58ZM150.467 44.12C150.06 44.12 149.68 44.02 149.327 43.82C148.973 43.6133 148.687 43.32 148.467 42.94C148.247 42.5533 148.137 42.09 148.137 41.55C148.137 41.0033 148.247 40.54 148.467 40.16C148.687 39.7733 148.973 39.48 149.327 39.28C149.68 39.0733 150.06 38.97 150.467 38.97C150.88 38.97 151.263 39.0733 151.617 39.28C151.97 39.48 152.257 39.7733 152.477 40.16C152.697 40.54 152.807 41.0033 152.807 41.55C152.807 42.09 152.697 42.5533 152.477 42.94C152.257 43.32 151.97 43.6133 151.617 43.82C151.263 44.02 150.88 44.12 150.467 44.12ZM150.467 43.18C150.827 43.18 151.11 43.03 151.317 42.73C151.523 42.43 151.627 42.0367 151.627 41.55C151.627 41.0567 151.523 40.66 151.317 40.36C151.11 40.06 150.827 39.91 150.467 39.91C150.107 39.91 149.823 40.06 149.617 40.36C149.417 40.66 149.317 41.0567 149.317 41.55C149.317 42.0367 149.417 42.43 149.617 42.73C149.823 43.03 150.107 43.18 150.467 43.18ZM153.945 44V39.09H154.895L154.975 39.96H155.015C155.188 39.64 155.398 39.3967 155.645 39.23C155.892 39.0567 156.145 38.97 156.405 38.97C156.638 38.97 156.825 39.0033 156.965 39.07L156.765 40.07C156.678 40.0433 156.598 40.0233 156.525 40.01C156.452 39.9967 156.362 39.99 156.255 39.99C156.062 39.99 155.858 40.0667 155.645 40.22C155.432 40.3667 155.248 40.6267 155.095 41V44H153.945ZM157.675 44V39.09H158.625L158.705 39.76H158.745C158.952 39.54 159.175 39.3533 159.415 39.2C159.662 39.0467 159.939 38.97 160.245 38.97C160.605 38.97 160.892 39.05 161.105 39.21C161.325 39.3633 161.492 39.5767 161.605 39.85C161.839 39.5967 162.082 39.3867 162.335 39.22C162.595 39.0533 162.879 38.97 163.185 38.97C163.705 38.97 164.089 39.14 164.335 39.48C164.582 39.82 164.705 40.3 164.705 40.92V44H163.545V41.07C163.545 40.6633 163.482 40.3767 163.355 40.21C163.235 40.0433 163.049 39.96 162.795 39.96C162.489 39.96 162.145 40.1633 161.765 40.57V44H160.615V41.07C160.615 40.6633 160.552 40.3767 160.425 40.21C160.305 40.0433 160.115 39.96 159.855 39.96C159.549 39.96 159.205 40.1633 158.825 40.57V44H157.675Z" fill="black"/>
<path d="M140.392 25.716C143.74 20.8869 145.512 12.8079 146.153 8.09035C146.218 7.6146 146.839 7.4864 147.056 7.91508C150.642 15.0252 149.303 23.2037 147.981 26.9879C147.889 27.2513 147.595 27.3748 147.331 27.2845C145.192 26.553 142.657 26.5112 140.922 26.6438C140.457 26.6794 140.127 26.0993 140.392 25.716Z" fill="#297496"/>
<path d="M149.419 26.6409C152.532 17.876 149.647 9.61245 147.027 5.4479C146.758 5.02033 147.198 4.44688 147.664 4.64184C159.76 9.70215 163.513 20.2217 163.958 25.6849C163.987 26.0445 163.624 26.2934 163.282 26.179C158.54 24.5938 153.223 26.0236 150.194 27.3583C149.758 27.5502 149.26 27.0895 149.419 26.6409Z" fill="#297496"/>
<path d="M165.483 28.0174L139.901 28.8788C139.509 28.892 139.284 29.3315 139.503 29.6573L140.928 31.7789C141.021 31.9171 141.177 32 141.343 32H161.751C161.814 32 161.877 31.9878 161.936 31.9644C164.61 30.8878 165.636 29.4262 165.915 28.5075C165.997 28.2369 165.766 28.0079 165.483 28.0174Z" fill="#297496"/>
</g>
<defs>
<clipPath id="clip0_2_164">
<rect width="175" height="51" fill="white"/>
</clipPath>
</defs>
</svg>
