<svg width="156" height="43" viewBox="0 0 156 43" fill="none" xmlns="http://www.w3.org/2000/svg">
<path d="M10.418 26.396C8.438 26.396 6.7 25.956 5.204 25.076C3.708 24.174 2.542 22.887 1.706 21.215C0.87 19.543 0.452 17.53 0.452 15.176C0.452 12.822 0.87 10.831 1.706 9.20299C2.542 7.55299 3.708 6.29899 5.204 5.44099C6.7 4.58299 8.438 4.15399 10.418 4.15399C12.398 4.15399 14.136 4.58299 15.632 5.44099C17.128 6.29899 18.294 7.55299 19.13 9.20299C19.966 10.831 20.384 12.822 20.384 15.176C20.384 17.53 19.966 19.543 19.13 21.215C18.294 22.887 17.128 24.174 15.632 25.076C14.136 25.956 12.398 26.396 10.418 26.396ZM10.418 21.512C11.716 21.512 12.728 20.94 13.454 19.796C14.202 18.652 14.576 17.112 14.576 15.176C14.576 13.218 14.202 11.711 13.454 10.655C12.728 9.57699 11.716 9.03799 10.418 9.03799C9.142 9.03799 8.13 9.57699 7.382 10.655C6.634 11.711 6.26 13.218 6.26 15.176C6.26 17.112 6.634 18.652 7.382 19.796C8.13 20.94 9.142 21.512 10.418 21.512Z" fill="#0C3354"/>
<path d="M22.9046 26V4.54999H29.2406C31.4186 4.54999 33.3326 4.91299 34.9826 5.63899C36.6546 6.34299 37.9526 7.47599 38.8766 9.03799C39.8006 10.6 40.2626 12.646 40.2626 15.176C40.2626 17.706 39.8006 19.774 38.8766 21.38C37.9526 22.964 36.6876 24.13 35.0816 24.878C33.4756 25.626 31.6386 26 29.5706 26H22.9046ZM28.5806 21.446H28.9106C29.9446 21.446 30.8796 21.27 31.7156 20.918C32.5516 20.566 33.2116 19.939 33.6956 19.037C34.2016 18.135 34.4546 16.848 34.4546 15.176C34.4546 13.504 34.2016 12.239 33.6956 11.381C33.2116 10.501 32.5516 9.90699 31.7156 9.59899C30.8796 9.26899 29.9446 9.10399 28.9106 9.10399H28.5806V21.446Z" fill="#0C3354"/>
<path d="M45.875 26V18.608L39.407 4.54999H45.479L47.063 9.03799C47.327 9.85199 47.591 10.644 47.855 11.414C48.119 12.184 48.394 12.987 48.68 13.823H48.812C49.098 12.987 49.373 12.184 49.637 11.414C49.923 10.644 50.209 9.85199 50.495 9.03799L52.079 4.54999H58.019L51.551 18.608V26H45.875Z" fill="#0C3354"/>
<path d="M64.8966 26.396C63.5546 26.396 62.1576 26.143 60.7056 25.637C59.2536 25.131 57.9446 24.361 56.7786 23.327L60.0126 19.433C60.7826 20.049 61.6076 20.555 62.4876 20.951C63.3896 21.325 64.2366 21.512 65.0286 21.512C65.8866 21.512 66.5026 21.38 66.8766 21.116C67.2726 20.852 67.4706 20.478 67.4706 19.994C67.4706 19.488 67.2066 19.103 66.6786 18.839C66.1726 18.575 65.4686 18.267 64.5666 17.915L61.8936 16.793C60.7496 16.331 59.7376 15.605 58.8576 14.615C57.9996 13.625 57.5706 12.36 57.5706 10.82C57.5706 9.58799 57.9116 8.47699 58.5936 7.48699C59.2756 6.47499 60.2106 5.67199 61.3986 5.07799C62.6086 4.46199 63.9946 4.15399 65.5566 4.15399C66.7886 4.15399 68.0316 4.39599 69.2856 4.87999C70.5616 5.34199 71.6946 6.05699 72.6846 7.02499L69.8466 10.589C69.1206 10.083 68.4166 9.69799 67.7346 9.43399C67.0746 9.16999 66.3486 9.03799 65.5566 9.03799C64.8746 9.03799 64.3246 9.15899 63.9066 9.40099C63.5106 9.64299 63.3126 10.006 63.3126 10.49C63.3126 10.996 63.5986 11.392 64.1706 11.678C64.7426 11.942 65.5126 12.261 66.4806 12.635L69.0876 13.658C70.4296 14.186 71.4636 14.923 72.1896 15.869C72.9156 16.815 73.2786 18.036 73.2786 19.532C73.2786 20.742 72.9486 21.875 72.2886 22.931C71.6506 23.965 70.7046 24.801 69.4506 25.439C68.1966 26.077 66.6786 26.396 64.8966 26.396Z" fill="#0C3354"/>
<path d="M81.559 26.396C80.217 26.396 78.82 26.143 77.368 25.637C75.916 25.131 74.607 24.361 73.441 23.327L76.675 19.433C77.445 20.049 78.27 20.555 79.15 20.951C80.052 21.325 80.899 21.512 81.691 21.512C82.549 21.512 83.165 21.38 83.539 21.116C83.935 20.852 84.133 20.478 84.133 19.994C84.133 19.488 83.869 19.103 83.341 18.839C82.835 18.575 82.131 18.267 81.229 17.915L78.556 16.793C77.412 16.331 76.4 15.605 75.52 14.615C74.662 13.625 74.233 12.36 74.233 10.82C74.233 9.58799 74.574 8.47699 75.256 7.48699C75.938 6.47499 76.873 5.67199 78.061 5.07799C79.271 4.46199 80.657 4.15399 82.219 4.15399C83.451 4.15399 84.694 4.39599 85.948 4.87999C87.224 5.34199 88.357 6.05699 89.347 7.02499L86.509 10.589C85.783 10.083 85.079 9.69799 84.397 9.43399C83.737 9.16999 83.011 9.03799 82.219 9.03799C81.537 9.03799 80.987 9.15899 80.569 9.40099C80.173 9.64299 79.975 10.006 79.975 10.49C79.975 10.996 80.261 11.392 80.833 11.678C81.405 11.942 82.175 12.261 83.143 12.635L85.75 13.658C87.092 14.186 88.126 14.923 88.852 15.869C89.578 16.815 89.941 18.036 89.941 19.532C89.941 20.742 89.611 21.875 88.951 22.931C88.313 23.965 87.367 24.801 86.113 25.439C84.859 26.077 83.341 26.396 81.559 26.396Z" fill="#0C3354"/>
<path d="M92.068 26V4.54999H105.928V9.30199H97.744V12.668H104.74V17.42H97.744V21.248H106.258V26H92.068Z" fill="#0C3354"/>
<path d="M112.847 26V18.608L106.379 4.54999H112.451L114.035 9.03799C114.299 9.85199 114.563 10.644 114.827 11.414C115.091 12.184 115.366 12.987 115.652 13.823H115.784C116.07 12.987 116.345 12.184 116.609 11.414C116.895 10.644 117.181 9.85199 117.467 9.03799L119.051 4.54999H124.991L118.523 18.608V26H112.847Z" fill="#0C3354"/>
<path d="M5.17 36.52L4.94 37.32H6.61L6.38 36.52C6.27333 36.1733 6.17 35.8167 6.07 35.45C5.97667 35.0833 5.88333 34.72 5.79 34.36H5.75C5.66333 34.7267 5.57 35.0933 5.47 35.46C5.37667 35.82 5.27667 36.1733 5.17 36.52ZM2.98 40L5.11 33.46H6.47L8.6 40H7.38L6.87 38.23H4.67L4.16 40H2.98ZM11.4081 40V33.46H12.5681V36.43H12.5981L14.9281 33.46H16.2181L14.2081 36.01L16.5581 40H15.2781L13.5081 36.92L12.5681 38.09V40H11.4081ZM17.2749 40V32.94H18.4249V34.76L18.3849 35.71C18.5916 35.5167 18.8216 35.3467 19.0749 35.2C19.3283 35.0467 19.6216 34.97 19.9549 34.97C20.4816 34.97 20.8649 35.14 21.1049 35.48C21.3449 35.82 21.4649 36.3 21.4649 36.92V40H20.3149V37.07C20.3149 36.6633 20.2549 36.3767 20.1349 36.21C20.0149 36.0433 19.8183 35.96 19.5449 35.96C19.3316 35.96 19.1416 36.0133 18.9749 36.12C18.8149 36.22 18.6316 36.37 18.4249 36.57V40H17.2749ZM24.8611 40.12C24.4544 40.12 24.0744 40.02 23.7211 39.82C23.3678 39.6133 23.0811 39.32 22.8611 38.94C22.6411 38.5533 22.5311 38.09 22.5311 37.55C22.5311 37.0033 22.6411 36.54 22.8611 36.16C23.0811 35.7733 23.3678 35.48 23.7211 35.28C24.0744 35.0733 24.4544 34.97 24.8611 34.97C25.2744 34.97 25.6578 35.0733 26.0111 35.28C26.3644 35.48 26.6511 35.7733 26.8711 36.16C27.0911 36.54 27.2011 37.0033 27.2011 37.55C27.2011 38.09 27.0911 38.5533 26.8711 38.94C26.6511 39.32 26.3644 39.6133 26.0111 39.82C25.6578 40.02 25.2744 40.12 24.8611 40.12ZM24.8611 39.18C25.2211 39.18 25.5044 39.03 25.7111 38.73C25.9178 38.43 26.0211 38.0367 26.0211 37.55C26.0211 37.0567 25.9178 36.66 25.7111 36.36C25.5044 36.06 25.2211 35.91 24.8611 35.91C24.5011 35.91 24.2178 36.06 24.0111 36.36C23.8111 36.66 23.7111 37.0567 23.7111 37.55C23.7111 38.0367 23.8111 38.43 24.0111 38.73C24.2178 39.03 24.5011 39.18 24.8611 39.18ZM29.7994 40.12C29.2727 40.12 28.8894 39.95 28.6494 39.61C28.4094 39.27 28.2894 38.79 28.2894 38.17V35.09H29.4394V38.02C29.4394 38.4267 29.4994 38.7133 29.6194 38.88C29.7394 39.0467 29.9327 39.13 30.1994 39.13C30.4127 39.13 30.5994 39.0767 30.7594 38.97C30.926 38.8633 31.1027 38.69 31.2894 38.45V35.09H32.4394V40H31.4994L31.4094 39.28H31.3794C31.166 39.5333 30.9327 39.7367 30.6794 39.89C30.426 40.0433 30.1327 40.12 29.7994 40.12ZM33.896 40V35.09H34.846L34.926 35.96H34.966C35.1393 35.64 35.3493 35.3967 35.596 35.23C35.8427 35.0567 36.096 34.97 36.356 34.97C36.5893 34.97 36.776 35.0033 36.916 35.07L36.716 36.07C36.6293 36.0433 36.5493 36.0233 36.476 36.01C36.4027 35.9967 36.3127 35.99 36.206 35.99C36.0127 35.99 35.8093 36.0667 35.596 36.22C35.3827 36.3667 35.1993 36.6267 35.046 37V40H33.896ZM38.1127 42.02C37.9794 42.02 37.8627 42.01 37.7627 41.99C37.6627 41.97 37.5661 41.9467 37.4727 41.92L37.6827 41.02C37.7294 41.0333 37.7827 41.0467 37.8427 41.06C37.9094 41.08 37.9727 41.09 38.0327 41.09C38.2927 41.09 38.4994 41.01 38.6527 40.85C38.8127 40.6967 38.9327 40.4967 39.0127 40.25L39.1027 39.94L37.1727 35.09H38.3427L39.1927 37.5C39.2661 37.7133 39.3361 37.94 39.4027 38.18C39.4761 38.4133 39.5494 38.6467 39.6227 38.88H39.6627C39.7227 38.6533 39.7827 38.4233 39.8427 38.19C39.9094 37.95 39.9727 37.72 40.0327 37.5L40.7727 35.09H41.8827L40.1027 40.22C39.8961 40.7733 39.6461 41.21 39.3527 41.53C39.0594 41.8567 38.6461 42.02 38.1127 42.02ZM47.4459 40.12C46.8992 40.12 46.4025 39.99 45.9559 39.73C45.5092 39.47 45.1525 39.09 44.8859 38.59C44.6259 38.0833 44.4959 37.47 44.4959 36.75C44.4959 36.0367 44.6292 35.4267 44.8959 34.92C45.1692 34.4067 45.5325 34.0167 45.9859 33.75C46.4392 33.4767 46.9392 33.34 47.4859 33.34C47.8992 33.34 48.2659 33.4233 48.5859 33.59C48.9059 33.7567 49.1692 33.95 49.3759 34.17L48.7559 34.92C48.5892 34.7467 48.4025 34.61 48.1959 34.51C47.9959 34.4033 47.7692 34.35 47.5159 34.35C47.1625 34.35 46.8459 34.4467 46.5659 34.64C46.2925 34.8267 46.0759 35.0967 45.9159 35.45C45.7625 35.8033 45.6859 36.2267 45.6859 36.72C45.6859 37.4667 45.8492 38.0533 46.1759 38.48C46.5025 38.9 46.9392 39.11 47.4859 39.11C47.7792 39.11 48.0392 39.05 48.2659 38.93C48.4925 38.8033 48.6992 38.64 48.8859 38.44L49.5059 39.17C49.2392 39.4767 48.9325 39.7133 48.5859 39.88C48.2459 40.04 47.8659 40.12 47.4459 40.12ZM52.5076 40.12C52.1009 40.12 51.7209 40.02 51.3676 39.82C51.0142 39.6133 50.7276 39.32 50.5076 38.94C50.2876 38.5533 50.1776 38.09 50.1776 37.55C50.1776 37.0033 50.2876 36.54 50.5076 36.16C50.7276 35.7733 51.0142 35.48 51.3676 35.28C51.7209 35.0733 52.1009 34.97 52.5076 34.97C52.9209 34.97 53.3042 35.0733 53.6576 35.28C54.0109 35.48 54.2976 35.7733 54.5176 36.16C54.7376 36.54 54.8476 37.0033 54.8476 37.55C54.8476 38.09 54.7376 38.5533 54.5176 38.94C54.2976 39.32 54.0109 39.6133 53.6576 39.82C53.3042 40.02 52.9209 40.12 52.5076 40.12ZM52.5076 39.18C52.8676 39.18 53.1509 39.03 53.3576 38.73C53.5642 38.43 53.6676 38.0367 53.6676 37.55C53.6676 37.0567 53.5642 36.66 53.3576 36.36C53.1509 36.06 52.8676 35.91 52.5076 35.91C52.1476 35.91 51.8642 36.06 51.6576 36.36C51.4576 36.66 51.3576 37.0567 51.3576 37.55C51.3576 38.0367 51.4576 38.43 51.6576 38.73C51.8642 39.03 52.1476 39.18 52.5076 39.18ZM57.1059 40.12C56.6992 40.12 56.4092 39.9967 56.2359 39.75C56.0692 39.5033 55.9859 39.1667 55.9859 38.74V32.94H57.1359V38.8C57.1359 38.94 57.1625 39.04 57.2159 39.1C57.2692 39.1533 57.3259 39.18 57.3859 39.18C57.4125 39.18 57.4359 39.18 57.4559 39.18C57.4825 39.1733 57.5192 39.1667 57.5659 39.16L57.7159 40.02C57.6492 40.0467 57.5625 40.07 57.4559 40.09C57.3559 40.11 57.2392 40.12 57.1059 40.12ZM59.8207 40.12C59.414 40.12 59.124 39.9967 58.9507 39.75C58.784 39.5033 58.7007 39.1667 58.7007 38.74V32.94H59.8507V38.8C59.8507 38.94 59.8774 39.04 59.9307 39.1C59.984 39.1533 60.0407 39.18 60.1007 39.18C60.1274 39.18 60.1507 39.18 60.1707 39.18C60.1974 39.1733 60.234 39.1667 60.2807 39.16L60.4307 40.02C60.364 40.0467 60.2774 40.07 60.1707 40.09C60.0707 40.11 59.954 40.12 59.8207 40.12ZM63.5155 40.12C63.0622 40.12 62.6522 40.02 62.2855 39.82C61.9189 39.6133 61.6289 39.32 61.4155 38.94C61.2022 38.5533 61.0955 38.09 61.0955 37.55C61.0955 37.0167 61.2022 36.5567 61.4155 36.17C61.6355 35.7833 61.9189 35.4867 62.2655 35.28C62.6122 35.0733 62.9755 34.97 63.3555 34.97C63.8022 34.97 64.1755 35.07 64.4755 35.27C64.7755 35.4633 65.0022 35.7367 65.1555 36.09C65.3089 36.4367 65.3855 36.84 65.3855 37.3C65.3855 37.54 65.3689 37.7267 65.3355 37.86H62.2155C62.2689 38.2933 62.4255 38.63 62.6855 38.87C62.9455 39.11 63.2722 39.23 63.6655 39.23C63.8789 39.23 64.0755 39.2 64.2555 39.14C64.4422 39.0733 64.6255 38.9833 64.8055 38.87L65.1955 39.59C64.9622 39.7433 64.7022 39.87 64.4155 39.97C64.1289 40.07 63.8289 40.12 63.5155 40.12ZM62.2055 37.08H64.3855C64.3855 36.7 64.3022 36.4033 64.1355 36.19C63.9689 35.97 63.7189 35.86 63.3855 35.86C63.0989 35.86 62.8422 35.9667 62.6155 36.18C62.3955 36.3867 62.2589 36.6867 62.2055 37.08ZM68.0963 42.17C67.7096 42.17 67.3596 42.1233 67.0463 42.03C66.7396 41.9367 66.4963 41.7933 66.3162 41.6C66.1429 41.4133 66.0563 41.1767 66.0563 40.89C66.0563 40.4833 66.2896 40.1333 66.7563 39.84V39.8C66.6296 39.72 66.5229 39.6133 66.4363 39.48C66.3563 39.3467 66.3162 39.18 66.3162 38.98C66.3162 38.7867 66.3696 38.6133 66.4763 38.46C66.5896 38.3 66.7163 38.17 66.8563 38.07V38.03C66.6896 37.9033 66.5396 37.7267 66.4063 37.5C66.2796 37.2733 66.2163 37.0167 66.2163 36.73C66.2163 36.35 66.3063 36.03 66.4863 35.77C66.6663 35.51 66.9029 35.3133 67.1963 35.18C67.4963 35.04 67.8163 34.97 68.1562 34.97C68.2896 34.97 68.4163 34.9833 68.5363 35.01C68.6629 35.03 68.7763 35.0567 68.8763 35.09H70.6363V35.94H69.7363C69.8163 36.0333 69.8829 36.1533 69.9363 36.3C69.9896 36.44 70.0163 36.5967 70.0163 36.77C70.0163 37.13 69.9329 37.4367 69.7663 37.69C69.5996 37.9367 69.3763 38.1233 69.0963 38.25C68.8163 38.3767 68.5029 38.44 68.1562 38.44C68.0496 38.44 67.9396 38.43 67.8263 38.41C67.7129 38.39 67.5996 38.3567 67.4863 38.31C67.4129 38.3767 67.3529 38.4433 67.3063 38.51C67.2663 38.5767 67.2463 38.6667 67.2463 38.78C67.2463 38.92 67.3029 39.03 67.4163 39.11C67.5363 39.19 67.7463 39.23 68.0463 39.23H68.9163C69.5096 39.23 69.9563 39.3267 70.2563 39.52C70.5629 39.7067 70.7163 40.0133 70.7163 40.44C70.7163 40.76 70.6096 41.05 70.3963 41.31C70.1829 41.5767 69.8796 41.7867 69.4863 41.94C69.0929 42.0933 68.6296 42.17 68.0963 42.17ZM68.1562 37.72C68.3896 37.72 68.5896 37.6333 68.7563 37.46C68.9229 37.2867 69.0063 37.0433 69.0063 36.73C69.0063 36.4233 68.9229 36.1867 68.7563 36.02C68.5963 35.8467 68.3963 35.76 68.1562 35.76C67.9163 35.76 67.7129 35.8433 67.5463 36.01C67.3796 36.1767 67.2963 36.4167 67.2963 36.73C67.2963 37.0433 67.3796 37.2867 67.5463 37.46C67.7129 37.6333 67.9163 37.72 68.1562 37.72ZM68.2763 41.42C68.6696 41.42 68.9896 41.34 69.2363 41.18C69.4829 41.02 69.6063 40.8367 69.6063 40.63C69.6063 40.4367 69.5296 40.3067 69.3763 40.24C69.2296 40.1733 69.0163 40.14 68.7363 40.14H68.0663C67.7996 40.14 67.5763 40.1167 67.3963 40.07C67.1429 40.2633 67.0163 40.48 67.0163 40.72C67.0163 40.94 67.1296 41.11 67.3563 41.23C67.5829 41.3567 67.8896 41.42 68.2763 41.42ZM73.5253 40.12C73.072 40.12 72.662 40.02 72.2953 39.82C71.9286 39.6133 71.6386 39.32 71.4253 38.94C71.212 38.5533 71.1053 38.09 71.1053 37.55C71.1053 37.0167 71.212 36.5567 71.4253 36.17C71.6453 35.7833 71.9286 35.4867 72.2753 35.28C72.622 35.0733 72.9853 34.97 73.3653 34.97C73.812 34.97 74.1853 35.07 74.4853 35.27C74.7853 35.4633 75.012 35.7367 75.1653 36.09C75.3186 36.4367 75.3953 36.84 75.3953 37.3C75.3953 37.54 75.3786 37.7267 75.3453 37.86H72.2253C72.2786 38.2933 72.4353 38.63 72.6953 38.87C72.9553 39.11 73.282 39.23 73.6753 39.23C73.8886 39.23 74.0853 39.2 74.2653 39.14C74.452 39.0733 74.6353 38.9833 74.8153 38.87L75.2053 39.59C74.972 39.7433 74.712 39.87 74.4253 39.97C74.1386 40.07 73.8386 40.12 73.5253 40.12ZM72.2153 37.08H74.3953C74.3953 36.7 74.312 36.4033 74.1453 36.19C73.9786 35.97 73.7286 35.86 73.3953 35.86C73.1086 35.86 72.852 35.9667 72.6253 36.18C72.4053 36.3867 72.2686 36.6867 72.2153 37.08ZM78.5956 40V33.46H79.7556V39.02H82.4756V40H78.5956ZM85.4882 40.12C85.0349 40.12 84.6249 40.02 84.2582 39.82C83.8915 39.6133 83.6015 39.32 83.3882 38.94C83.1749 38.5533 83.0682 38.09 83.0682 37.55C83.0682 37.0167 83.1749 36.5567 83.3882 36.17C83.6082 35.7833 83.8915 35.4867 84.2382 35.28C84.5849 35.0733 84.9482 34.97 85.3282 34.97C85.7749 34.97 86.1482 35.07 86.4482 35.27C86.7482 35.4633 86.9749 35.7367 87.1282 36.09C87.2815 36.4367 87.3582 36.84 87.3582 37.3C87.3582 37.54 87.3415 37.7267 87.3082 37.86H84.1882C84.2415 38.2933 84.3982 38.63 84.6582 38.87C84.9182 39.11 85.2449 39.23 85.6382 39.23C85.8515 39.23 86.0482 39.2 86.2282 39.14C86.4149 39.0733 86.5982 38.9833 86.7782 38.87L87.1682 39.59C86.9349 39.7433 86.6749 39.87 86.3882 39.97C86.1015 40.07 85.8015 40.12 85.4882 40.12ZM84.1782 37.08H86.3582C86.3582 36.7 86.2749 36.4033 86.1082 36.19C85.9415 35.97 85.6915 35.86 85.3582 35.86C85.0715 35.86 84.8149 35.9667 84.5882 36.18C84.3682 36.3867 84.2315 36.6867 84.1782 37.08ZM89.5294 40.12C89.1027 40.12 88.7527 39.9867 88.4794 39.72C88.2127 39.4533 88.0794 39.1067 88.0794 38.68C88.0794 38.1533 88.3094 37.7467 88.7694 37.46C89.2294 37.1667 89.9627 36.9667 90.9694 36.86C90.9627 36.6 90.8927 36.3767 90.7594 36.19C90.6327 35.9967 90.4027 35.9 90.0694 35.9C89.8294 35.9 89.5927 35.9467 89.3594 36.04C89.1327 36.1333 88.9094 36.2467 88.6894 36.38L88.2694 35.61C88.5427 35.4367 88.8494 35.2867 89.1894 35.16C89.536 35.0333 89.9027 34.97 90.2894 34.97C90.9027 34.97 91.3594 35.1533 91.6594 35.52C91.966 35.88 92.1194 36.4033 92.1194 37.09V40H91.1694L91.0894 39.46H91.0494C90.8294 39.6467 90.5927 39.8033 90.3394 39.93C90.0927 40.0567 89.8227 40.12 89.5294 40.12ZM89.8994 39.22C90.0994 39.22 90.2794 39.1733 90.4394 39.08C90.606 38.98 90.7827 38.8467 90.9694 38.68V37.58C90.3027 37.6667 89.8394 37.7967 89.5794 37.97C89.3194 38.1367 89.1894 38.3433 89.1894 38.59C89.1894 38.81 89.256 38.97 89.3894 39.07C89.5227 39.17 89.6927 39.22 89.8994 39.22ZM93.4956 40V35.09H94.4456L94.5256 35.96H94.5656C94.739 35.64 94.949 35.3967 95.1956 35.23C95.4423 35.0567 95.6956 34.97 95.9556 34.97C96.189 34.97 96.3756 35.0033 96.5156 35.07L96.3156 36.07C96.229 36.0433 96.149 36.0233 96.0756 36.01C96.0023 35.9967 95.9123 35.99 95.8056 35.99C95.6123 35.99 95.409 36.0667 95.1956 36.22C94.9823 36.3667 94.799 36.6267 94.6456 37V40H93.4956ZM97.2261 40V35.09H98.1761L98.2561 35.75H98.2961C98.5161 35.5367 98.7561 35.3533 99.0161 35.2C99.2761 35.0467 99.5728 34.97 99.9061 34.97C100.433 34.97 100.816 35.14 101.056 35.48C101.296 35.82 101.416 36.3 101.416 36.92V40H100.266V37.07C100.266 36.6633 100.206 36.3767 100.086 36.21C99.9661 36.0433 99.7694 35.96 99.4961 35.96C99.2828 35.96 99.0928 36.0133 98.9261 36.12C98.7661 36.22 98.5828 36.37 98.3761 36.57V40H97.2261ZM102.822 40V35.09H103.972V40H102.822ZM103.402 34.23C103.195 34.23 103.028 34.17 102.902 34.05C102.775 33.93 102.712 33.77 102.712 33.57C102.712 33.3767 102.775 33.22 102.902 33.1C103.028 32.98 103.195 32.92 103.402 32.92C103.608 32.92 103.775 32.98 103.902 33.1C104.028 33.22 104.092 33.3767 104.092 33.57C104.092 33.77 104.028 33.93 103.902 34.05C103.775 34.17 103.608 34.23 103.402 34.23ZM105.439 40V35.09H106.389L106.469 35.75H106.509C106.729 35.5367 106.969 35.3533 107.229 35.2C107.489 35.0467 107.786 34.97 108.119 34.97C108.646 34.97 109.029 35.14 109.269 35.48C109.509 35.82 109.629 36.3 109.629 36.92V40H108.479V37.07C108.479 36.6633 108.419 36.3767 108.299 36.21C108.179 36.0433 107.982 35.96 107.709 35.96C107.496 35.96 107.306 36.0133 107.139 36.12C106.979 36.22 106.796 36.37 106.589 36.57V40H105.439ZM112.745 42.17C112.358 42.17 112.008 42.1233 111.695 42.03C111.388 41.9367 111.145 41.7933 110.965 41.6C110.791 41.4133 110.705 41.1767 110.705 40.89C110.705 40.4833 110.938 40.1333 111.405 39.84V39.8C111.278 39.72 111.171 39.6133 111.085 39.48C111.005 39.3467 110.965 39.18 110.965 38.98C110.965 38.7867 111.018 38.6133 111.125 38.46C111.238 38.3 111.365 38.17 111.505 38.07V38.03C111.338 37.9033 111.188 37.7267 111.055 37.5C110.928 37.2733 110.865 37.0167 110.865 36.73C110.865 36.35 110.955 36.03 111.135 35.77C111.315 35.51 111.551 35.3133 111.845 35.18C112.145 35.04 112.465 34.97 112.805 34.97C112.938 34.97 113.065 34.9833 113.185 35.01C113.311 35.03 113.425 35.0567 113.525 35.09H115.285V35.94H114.385C114.465 36.0333 114.531 36.1533 114.585 36.3C114.638 36.44 114.665 36.5967 114.665 36.77C114.665 37.13 114.581 37.4367 114.415 37.69C114.248 37.9367 114.025 38.1233 113.745 38.25C113.465 38.3767 113.151 38.44 112.805 38.44C112.698 38.44 112.588 38.43 112.475 38.41C112.361 38.39 112.248 38.3567 112.135 38.31C112.061 38.3767 112.001 38.4433 111.955 38.51C111.915 38.5767 111.895 38.6667 111.895 38.78C111.895 38.92 111.951 39.03 112.065 39.11C112.185 39.19 112.395 39.23 112.695 39.23H113.565C114.158 39.23 114.605 39.3267 114.905 39.52C115.211 39.7067 115.365 40.0133 115.365 40.44C115.365 40.76 115.258 41.05 115.045 41.31C114.831 41.5767 114.528 41.7867 114.135 41.94C113.741 42.0933 113.278 42.17 112.745 42.17ZM112.805 37.72C113.038 37.72 113.238 37.6333 113.405 37.46C113.571 37.2867 113.655 37.0433 113.655 36.73C113.655 36.4233 113.571 36.1867 113.405 36.02C113.245 35.8467 113.045 35.76 112.805 35.76C112.565 35.76 112.361 35.8433 112.195 36.01C112.028 36.1767 111.945 36.4167 111.945 36.73C111.945 37.0433 112.028 37.2867 112.195 37.46C112.361 37.6333 112.565 37.72 112.805 37.72ZM112.925 41.42C113.318 41.42 113.638 41.34 113.885 41.18C114.131 41.02 114.255 40.8367 114.255 40.63C114.255 40.4367 114.178 40.3067 114.025 40.24C113.878 40.1733 113.665 40.14 113.385 40.14H112.715C112.448 40.14 112.225 40.1167 112.045 40.07C111.791 40.2633 111.665 40.48 111.665 40.72C111.665 40.94 111.778 41.11 112.005 41.23C112.231 41.3567 112.538 41.42 112.925 41.42ZM118.332 40V33.46H120.392C120.879 33.46 121.312 33.5233 121.692 33.65C122.072 33.7767 122.372 33.9867 122.592 34.28C122.812 34.5733 122.922 34.9733 122.922 35.48C122.922 35.96 122.812 36.3567 122.592 36.67C122.372 36.9833 122.075 37.2167 121.702 37.37C121.329 37.5233 120.905 37.6 120.432 37.6H119.492V40H118.332ZM119.492 36.67H120.342C121.302 36.67 121.782 36.2733 121.782 35.48C121.782 35.0667 121.655 34.7833 121.402 34.63C121.155 34.47 120.789 34.39 120.302 34.39H119.492V36.67ZM125.172 40.12C124.766 40.12 124.476 39.9967 124.302 39.75C124.136 39.5033 124.052 39.1667 124.052 38.74V32.94H125.202V38.8C125.202 38.94 125.229 39.04 125.282 39.1C125.336 39.1533 125.392 39.18 125.452 39.18C125.479 39.18 125.502 39.18 125.522 39.18C125.549 39.1733 125.586 39.1667 125.632 39.16L125.782 40.02C125.716 40.0467 125.629 40.07 125.522 40.09C125.422 40.11 125.306 40.12 125.172 40.12ZM127.957 40.12C127.53 40.12 127.18 39.9867 126.907 39.72C126.64 39.4533 126.507 39.1067 126.507 38.68C126.507 38.1533 126.737 37.7467 127.197 37.46C127.657 37.1667 128.39 36.9667 129.397 36.86C129.39 36.6 129.32 36.3767 129.187 36.19C129.06 35.9967 128.83 35.9 128.497 35.9C128.257 35.9 128.02 35.9467 127.787 36.04C127.56 36.1333 127.337 36.2467 127.117 36.38L126.697 35.61C126.97 35.4367 127.277 35.2867 127.617 35.16C127.964 35.0333 128.33 34.97 128.717 34.97C129.33 34.97 129.787 35.1533 130.087 35.52C130.394 35.88 130.547 36.4033 130.547 37.09V40H129.597L129.517 39.46H129.477C129.257 39.6467 129.02 39.8033 128.767 39.93C128.52 40.0567 128.25 40.12 127.957 40.12ZM128.327 39.22C128.527 39.22 128.707 39.1733 128.867 39.08C129.034 38.98 129.21 38.8467 129.397 38.68V37.58C128.73 37.6667 128.267 37.7967 128.007 37.97C127.747 38.1367 127.617 38.3433 127.617 38.59C127.617 38.81 127.684 38.97 127.817 39.07C127.95 39.17 128.12 39.22 128.327 39.22ZM133.497 40.12C132.93 40.12 132.527 39.9567 132.287 39.63C132.054 39.2967 131.937 38.8667 131.937 38.34V36H131.237V35.14L131.997 35.09L132.137 33.75H133.097V35.09H134.347V36H133.097V38.34C133.097 38.9133 133.327 39.2 133.787 39.2C133.874 39.2 133.964 39.19 134.057 39.17C134.15 39.1433 134.23 39.1167 134.297 39.09L134.497 39.94C134.364 39.9867 134.21 40.0267 134.037 40.06C133.87 40.1 133.69 40.12 133.497 40.12ZM135.58 40V36H134.92V35.14L135.58 35.09V34.58C135.58 34.0667 135.707 33.6467 135.96 33.32C136.214 32.9867 136.63 32.82 137.21 32.82C137.384 32.82 137.55 32.8367 137.71 32.87C137.87 32.9033 138.004 32.9433 138.11 32.99L137.89 33.85C137.71 33.77 137.53 33.73 137.35 33.73C136.937 33.73 136.73 34.0067 136.73 34.56V35.09H137.69V36H136.73V40H135.58ZM140.467 40.12C140.06 40.12 139.68 40.02 139.327 39.82C138.973 39.6133 138.687 39.32 138.467 38.94C138.247 38.5533 138.137 38.09 138.137 37.55C138.137 37.0033 138.247 36.54 138.467 36.16C138.687 35.7733 138.973 35.48 139.327 35.28C139.68 35.0733 140.06 34.97 140.467 34.97C140.88 34.97 141.263 35.0733 141.617 35.28C141.97 35.48 142.257 35.7733 142.477 36.16C142.697 36.54 142.807 37.0033 142.807 37.55C142.807 38.09 142.697 38.5533 142.477 38.94C142.257 39.32 141.97 39.6133 141.617 39.82C141.263 40.02 140.88 40.12 140.467 40.12ZM140.467 39.18C140.827 39.18 141.11 39.03 141.317 38.73C141.523 38.43 141.627 38.0367 141.627 37.55C141.627 37.0567 141.523 36.66 141.317 36.36C141.11 36.06 140.827 35.91 140.467 35.91C140.107 35.91 139.823 36.06 139.617 36.36C139.417 36.66 139.317 37.0567 139.317 37.55C139.317 38.0367 139.417 38.43 139.617 38.73C139.823 39.03 140.107 39.18 140.467 39.18ZM143.945 40V35.09H144.895L144.975 35.96H145.015C145.188 35.64 145.398 35.3967 145.645 35.23C145.892 35.0567 146.145 34.97 146.405 34.97C146.638 34.97 146.825 35.0033 146.965 35.07L146.765 36.07C146.678 36.0433 146.598 36.0233 146.525 36.01C146.452 35.9967 146.362 35.99 146.255 35.99C146.062 35.99 145.858 36.0667 145.645 36.22C145.432 36.3667 145.248 36.6267 145.095 37V40H143.945ZM147.675 40V35.09H148.625L148.705 35.76H148.745C148.952 35.54 149.175 35.3533 149.415 35.2C149.662 35.0467 149.939 34.97 150.245 34.97C150.605 34.97 150.892 35.05 151.105 35.21C151.325 35.3633 151.492 35.5767 151.605 35.85C151.839 35.5967 152.082 35.3867 152.335 35.22C152.595 35.0533 152.879 34.97 153.185 34.97C153.705 34.97 154.089 35.14 154.335 35.48C154.582 35.82 154.705 36.3 154.705 36.92V40H153.545V37.07C153.545 36.6633 153.482 36.3767 153.355 36.21C153.235 36.0433 153.049 35.96 152.795 35.96C152.489 35.96 152.145 36.1633 151.765 36.57V40H150.615V37.07C150.615 36.6633 150.552 36.3767 150.425 36.21C150.305 36.0433 150.115 35.96 149.855 35.96C149.549 35.96 149.205 36.1633 148.825 36.57V40H147.675Z" fill="black"/>
<path d="M130.392 21.716C133.74 16.8869 135.512 8.80794 136.153 4.09035C136.218 3.6146 136.839 3.4864 137.056 3.91508C140.642 11.0252 139.303 19.2037 137.981 22.9879C137.889 23.2513 137.595 23.3748 137.331 23.2845C135.192 22.553 132.657 22.5112 130.922 22.6438C130.457 22.6794 130.127 22.0993 130.392 21.716Z" fill="#297496"/>
<path d="M139.419 22.6409C142.532 13.876 139.647 5.61245 137.027 1.4479C136.758 1.02033 137.198 0.446885 137.664 0.641836C149.76 5.70215 153.513 16.2217 153.958 21.6849C153.987 22.0445 153.624 22.2934 153.282 22.179C148.54 20.5938 143.223 22.0236 140.194 23.3583C139.758 23.5502 139.26 23.0895 139.419 22.6409Z" fill="#297496"/>
<path d="M155.483 24.0174L129.901 24.8788C129.509 24.892 129.284 25.3315 129.503 25.6573L130.928 27.7789C131.021 27.9171 131.177 28 131.343 28H151.751C151.814 28 151.877 27.9878 151.936 27.9644C154.61 26.8878 155.636 25.4262 155.915 24.5075C155.997 24.2369 155.766 24.0079 155.483 24.0174Z" fill="#297496"/>
</svg>
